<svg width="60" height="60" viewBox="0 0 60 60" fill="none" xmlns="http://www.w3.org/2000/svg">
<g clip-path="url(#clip0_452_1186)">
<path d="M31.7032 43.8145C31.266 44.2919 30.6482 44.5638 30.0002 44.5638C29.3522 44.5638 28.7343 44.2919 28.2971 43.8145L15.9893 30.3736C15.1293 29.4344 15.1947 27.977 16.1353 27.1183C17.076 26.2596 18.5356 26.3248 19.3956 27.2639L27.6925 36.3248V2.32108C27.6925 1.04855 28.7257 0.0169334 30.0002 0.0169334C31.2746 0.0169334 32.3079 1.04855 32.3079 2.32108V36.3248L40.6048 27.2639C41.4648 26.3248 42.9245 26.2596 43.8651 27.1183C44.8057 27.977 44.8709 29.4344 44.0109 30.3736L31.7032 43.8145Z" fill="black"/>
<path d="M4.61539 39.1874C4.61539 37.9149 3.58222 36.8833 2.30769 36.8833C1.0332 36.8833 1.61216e-06 37.9149 1.61216e-06 39.1874V39.3561C-5.99263e-05 43.5576 -0.000121685 46.9441 0.358524 49.6077C0.730894 52.373 1.52748 54.7011 3.37954 56.5503C5.2316 58.3997 7.56351 59.1951 10.3331 59.5669C13.0007 59.9248 16.3924 59.9248 20.6004 59.9248H39.3997C43.6077 59.9248 46.9994 59.9248 49.6671 59.5669C52.4366 59.1951 54.7683 58.3997 56.6206 56.5503C58.4726 54.7011 59.2692 52.373 59.6415 49.6077C60 46.9441 60 43.5576 60 39.3561V39.1874C60 37.9149 58.9668 36.8833 57.6923 36.8833C56.4178 36.8833 55.3846 37.9149 55.3846 39.1874C55.3846 43.5973 55.3797 46.6728 55.0674 48.9936C54.7637 51.248 54.2086 52.4415 53.3569 53.2919C52.5052 54.1423 51.3099 54.6965 49.052 54.9997C46.7277 55.3116 43.6474 55.3165 39.2308 55.3165H20.7692C16.3526 55.3165 13.2722 55.3116 10.9481 54.9997C8.69031 54.6965 7.49468 54.1423 6.64311 53.2919C5.79154 52.4415 5.23631 51.248 4.93277 48.9936C4.62028 46.6728 4.61539 43.5973 4.61539 39.1874Z" fill="black"/>
</g>
<defs>
<clipPath id="clip0_452_1186">
<rect width="60" height="60" fill="white"/>
</clipPath>
</defs>
</svg>
