<svg width="60" height="60" viewBox="0 0 60 60" fill="none" xmlns="http://www.w3.org/2000/svg">
<path fill-rule="evenodd" clip-rule="evenodd" d="M3.51471 4.39339C2.38419e-07 8.78681 0 15.8579 0 30C0 44.142 2.38419e-07 51.2134 3.51471 55.6065C7.02945 60 12.6863 60 24 60H36C47.3136 60 52.9707 60 56.4852 55.6065C60 51.2134 60 44.142 60 30C60 15.8579 60 8.78681 56.4852 4.39339C52.9707 -4.76837e-07 47.3136 0 36 0H24C12.6863 0 7.02945 -4.76837e-07 3.51471 4.39339ZM49.7286 13.1995C50.5239 14.3928 50.3949 16.1662 49.4403 17.1606L42.8511 24.0248C40.1919 26.7945 38.0367 29.0396 36.1344 30.5689C34.1529 32.1619 32.2233 33.1684 30 33.1684C27.7767 33.1684 25.8471 32.1619 23.8655 30.5689C21.9634 29.0396 19.8081 26.7945 17.1491 24.0248L10.5596 17.1606C9.60495 16.1662 9.47598 14.3928 10.2715 13.1995C11.067 12.0062 12.4858 11.845 13.4404 12.8394L19.9171 19.5859C22.716 22.5015 24.6591 24.519 26.2998 25.8379C27.8877 27.1147 28.9647 27.5434 30 27.5434C31.0353 27.5434 32.1123 27.1147 33.7002 25.8379C35.3409 24.519 37.284 22.5015 40.083 19.5859L46.5597 12.8394C47.5143 11.845 48.933 12.0062 49.7286 13.1995Z" fill="black"/>
</svg>
