<svg width="60" height="60" viewBox="0 0 60 60" fill="none" xmlns="http://www.w3.org/2000/svg">
<path d="M30 0C44.142 0 51.2132 0.000144482 55.6064 4.39355C59.9999 8.78694 60 15.8579 60 30C60 44.142 59.9999 51.2132 55.6064 55.6064C51.2132 59.9999 44.142 60 30 60C15.8579 60 8.78694 59.9999 4.39355 55.6064C0.000144482 51.2132 0 44.142 0 30C0 15.8579 0.000144679 8.78694 4.39355 4.39355C8.78694 0.000144679 15.8579 0 30 0ZM15.7676 25.0605V43.7754H21.6152V25.0605H15.7676ZM37.5879 24.8848C34.2363 24.8848 32.1387 26.7129 31.752 28.002V25.0605H25.1777C25.2598 26.619 25.1778 43.7714 25.1777 43.7754H31.752V33.6621C31.752 33.0879 31.7285 32.5254 31.8926 32.127C32.3379 31.002 33.3105 29.8301 35.0566 29.8301C37.3418 29.8301 38.373 31.5645 38.373 34.0957V43.7754H45.0059V33.3691C45.0059 27.5801 41.748 24.8848 37.5879 24.8848ZM18.5684 16.2246C16.4121 16.2246 14.9941 17.6191 14.9941 19.4707C14.9941 21.2871 16.3652 22.7168 18.4863 22.7168H18.5332C20.7363 22.7168 22.1074 21.2754 22.0957 19.4707C22.0488 17.6191 20.7246 16.2246 18.5684 16.2246Z" fill="black"/>
</svg>
