<svg width="61" height="61" viewBox="0 0 61 61" fill="none" xmlns="http://www.w3.org/2000/svg">
<path d="M30.7832 0.171875C44.9252 0.171875 51.9964 0.172019 56.3896 4.56543C60.783 8.95882 60.7832 16.0299 60.7832 30.1719C60.7832 44.3138 60.7831 51.3851 56.3896 55.7783C51.9964 60.1717 44.9251 60.1719 30.7832 60.1719C16.6412 60.1719 9.57015 60.1717 5.17676 55.7783C0.783363 51.3851 0.783203 44.3138 0.783203 30.1719C0.783203 16.0298 0.783424 8.95882 5.17676 4.56543C9.57014 0.17202 16.6411 0.171875 30.7832 0.171875ZM19.4844 46.1514C18.1037 46.1514 16.9844 47.2707 16.9844 48.6514C16.9845 50.032 18.1037 51.1514 19.4844 51.1514H43.3145C44.6951 51.1514 45.8143 50.032 45.8145 48.6514C45.8145 47.2707 44.6952 46.1514 43.3145 46.1514H19.4844ZM30.7832 13.3418C29.4026 13.3418 28.2834 14.4612 28.2832 15.8418V31.6719L24.0664 27.4551C23.0901 26.4788 21.5076 26.4788 20.5312 27.4551C19.5549 28.4314 19.555 30.0139 20.5312 30.9902L29.0156 39.4746C29.0738 39.5328 29.1346 39.5884 29.1982 39.6406C29.2215 39.6597 29.2467 39.6762 29.2705 39.6943C29.3107 39.725 29.3505 39.756 29.3926 39.7842C29.4323 39.8108 29.4738 39.8343 29.5146 39.8584C29.5433 39.8753 29.5712 39.8934 29.6006 39.9092C29.6495 39.9355 29.6997 39.9586 29.75 39.9814C29.7729 39.9919 29.7951 40.0039 29.8184 40.0137C29.8684 40.0346 29.9196 40.0518 29.9707 40.0693C29.9968 40.0783 30.0224 40.0886 30.0488 40.0967C30.1013 40.1127 30.1548 40.1242 30.208 40.1367C30.2357 40.1433 30.263 40.1516 30.291 40.1572C30.296 40.1582 30.3007 40.1602 30.3057 40.1611C30.3516 40.17 30.398 40.1753 30.4443 40.1816C30.4726 40.1855 30.5007 40.1915 30.5293 40.1943C30.5339 40.1948 30.5384 40.1959 30.543 40.1963C30.705 40.2119 30.8683 40.2103 31.0303 40.1943H31.0391C31.0506 40.1932 31.0618 40.1898 31.0732 40.1885C31.141 40.1806 31.2084 40.1706 31.2754 40.1572C31.3005 40.1522 31.3248 40.1444 31.3496 40.1387C31.4052 40.1258 31.4609 40.1134 31.5156 40.0967C31.5318 40.0917 31.5474 40.0853 31.5635 40.0801C31.6054 40.0663 31.6472 40.0522 31.6885 40.0361C31.7063 40.0292 31.7245 40.023 31.7422 40.0156C31.7439 40.0149 31.7453 40.0134 31.7471 40.0127C31.7705 40.0029 31.7933 39.9919 31.8164 39.9814C31.866 39.9589 31.9155 39.9361 31.9639 39.9102C31.986 39.8983 32.0066 39.8836 32.0283 39.8711C32.0551 39.8557 32.0821 39.8407 32.1084 39.8242C32.1249 39.8139 32.1429 39.8057 32.1592 39.7949C32.1642 39.7916 32.1679 39.7865 32.1729 39.7832C32.208 39.7597 32.2416 39.7342 32.2754 39.709C32.3037 39.6879 32.3338 39.669 32.3613 39.6465C32.3642 39.6442 32.3663 39.641 32.3691 39.6387C32.4322 39.5868 32.4931 39.5323 32.5508 39.4746L41.0352 30.9902C42.0114 30.0139 42.0115 28.4314 41.0352 27.4551C40.0589 26.4788 38.4763 26.4788 37.5 27.4551L33.2832 31.6719V15.8418C33.2831 14.4612 32.1638 13.3418 30.7832 13.3418Z" fill="black"/>
</svg>
