<svg width="800" height="800" viewBox="0 0 800 800" fill="none" xmlns="http://www.w3.org/2000/svg">
<path d="M633.909 72.7275C679.564 72.7276 713.327 113.764 711.818 158.273C710.364 201.019 712.255 256.401 725.818 301.546C739.437 346.837 762.4 375.473 800 379.146V420.854C762.4 424.527 739.437 453.164 725.818 498.455C712.237 543.6 710.364 598.982 711.818 641.728C713.309 686.237 679.545 727.272 633.891 727.272H166.164C120.51 727.272 86.7458 686.237 88.2549 641.728C89.7094 598.982 87.8181 543.6 74.2363 498.455C60.6363 453.164 37.6182 424.527 0 420.854V379.146C37.5999 375.473 60.6363 346.837 74.2363 301.546C87.8181 256.401 89.7094 201.019 88.2549 158.273C86.7458 113.764 120.51 72.7275 166.164 72.7275H633.909ZM270.309 570.309H410.473C446.891 570.309 477.127 561.417 497.891 544.581C518.69 527.727 529.69 503.2 529.69 473.654C529.69 429.036 497.981 395.509 450.727 390.036V389.509C485.472 383.509 512.581 350.945 512.581 315.072C512.581 289.709 502.835 268.236 484.381 252.963C465.999 237.745 440.181 229.69 409.745 229.69H270.309V570.309ZM396.272 415.727C447.181 415.727 472.999 434.127 472.999 470.399C472.999 506.636 447.545 525.781 399.399 525.781H325.8V415.727H396.272ZM396.763 274.272C435.69 274.272 457.127 291.345 457.127 322.363C457.109 355.654 431.654 373.981 385.436 373.981H325.8V274.272H396.763Z" fill="black"/>
</svg>
