<svg width="800" height="800" viewBox="0 0 800 800" fill="none" xmlns="http://www.w3.org/2000/svg">
<path d="M754.862 0.783203L688.316 721.586L399.997 799.218L111.673 721.586L45.1406 0.783203H754.862ZM620.767 147.347H399.737H174.792L185.55 234.391H399.737H411.769L399.737 239.399L193.378 325.346L200.222 410.429L399.737 411.075L506.672 411.414L499.827 524.861L399.736 553.041V552.952L398.916 553.18L302.253 528.779L296.388 458.357H296.067H206.408H206.092L217.828 594.305L399.739 648.1V648.003L400.067 648.1L581.003 595.285L604.473 325.346H399.739H399.234L399.739 325.127L611.973 234.391L620.767 147.347Z" fill="black"/>
</svg>
