<svg width="800" height="800" viewBox="0 0 800 800" fill="none" xmlns="http://www.w3.org/2000/svg">
<path d="M382.607 0V243.478H260.868C193.825 243.478 139.129 188.783 139.129 121.739C139.129 54.6957 193.825 0 260.868 0H382.607Z" fill="black"/>
<path d="M382.607 278.262V521.74H260.868C193.825 521.74 139.129 467.044 139.129 400.001C139.129 332.957 193.825 278.262 260.868 278.262H382.607Z" fill="black"/>
<path d="M382.607 556.521V678.261C382.607 745.304 327.912 800 260.868 800C193.825 800 139.129 745.304 139.129 678.261C139.129 611.217 193.825 556.521 260.868 556.521H382.607Z" fill="black"/>
<path d="M660.869 121.739C660.869 188.783 606.173 243.478 539.13 243.478H417.391V0H539.13C606.173 0 660.869 54.6957 660.869 121.739Z" fill="black"/>
<path d="M539.13 521.74C606.364 521.74 660.869 467.236 660.869 400.001C660.869 332.766 606.364 278.262 539.13 278.262C471.895 278.262 417.391 332.766 417.391 400.001C417.391 467.236 471.895 521.74 539.13 521.74Z" fill="black"/>
</svg>
