<svg width="800" height="800" viewBox="0 0 800 800" fill="none" xmlns="http://www.w3.org/2000/svg">
<g clip-path="url(#clip0_514_1175)">
<path fill-rule="evenodd" clip-rule="evenodd" d="M1.57564 0.78125C0.685014 0.910937 0.750639 1.98437 0.814701 3.05937C0.814701 268.166 0.814701 533.231 0.814701 798.331C265.446 800.105 533.327 798.584 799.219 799.091C799.219 532.983 799.219 266.887 799.219 0.78125C533.347 0.78125 267.449 0.78125 1.57564 0.78125ZM406.083 706.511C387.612 725.134 358.462 736.102 322.601 736.102C263.783 736.102 231.127 707.445 210.282 667.803C230.348 654.991 250.854 642.612 271.757 630.623C280.282 654.47 309.079 681.28 341.574 664.775C362.173 654.308 359.794 622.572 359.794 588.128C359.794 516.608 359.794 434.1 359.794 369.578C359.729 368.503 359.665 367.43 360.548 367.3C385.09 367.3 409.63 367.3 434.166 367.3C434.166 424.781 434.166 489.803 434.166 550.939C434.166 617.498 438.923 673.419 406.083 706.511ZM735.463 640.495C731.285 702.814 680.396 735.906 611.76 736.102C544.476 736.295 501.41 706.394 475.146 660.216C494.029 647.22 515.424 636.752 535.107 624.556C550.857 649.183 578.133 672.853 618.59 669.325C643.794 667.128 673.052 646.583 656.535 615.447C648.524 600.353 629.166 592.686 611.76 585.095C556.522 560.995 491.716 538.891 497.915 452.295C499.988 423.367 513.308 403.038 530.554 388.552C548.227 373.708 571.898 363.759 603.412 362.753C660.644 360.92 692.041 386.378 713.457 421.947C695.232 435.839 675.154 447.897 655.018 459.886C648.41 439.581 616.512 419.795 589.749 431.809C577.579 437.267 566.643 453.311 573.055 472.784C578.774 490.152 602.101 499.658 620.866 507.697C677.666 532.009 741.143 555.77 735.463 640.495Z" fill="black"/>
</g>
<defs>
<clipPath id="clip0_514_1175">
<rect width="800" height="800" fill="white"/>
</clipPath>
</defs>
</svg>
