<svg width="800" height="800" viewBox="0 0 800 800" fill="none" xmlns="http://www.w3.org/2000/svg">
<g clip-path="url(#clip0_514_1197)">
<path d="M328.333 287.635C316 282.507 302.667 280.456 289 280.797C280.333 280.797 272.667 280.797 266.333 281.139C259.667 280.797 255 281.139 252.667 281.481V396.358C257.333 396.7 261.667 397.042 265.667 397.042H283.333C296.333 397.042 309.333 394.99 321.667 390.888C332.333 387.811 341.667 381.315 349 372.767C356 364.22 359.333 352.595 359.333 337.552C359.667 326.953 357 316.354 351.667 307.123C346 298.234 338 291.396 328.333 287.635ZM658.333 10.0166H141.667C63.3333 10.0166 0 74.9766 0 155.322V664.711C0 745.057 63.3333 810.017 141.667 810.017H658.333C736.667 810.017 800 745.057 800 664.711V155.322C800 74.9766 736.667 10.0166 658.333 10.0166ZM411.967 408.324C398.667 427.47 380 441.83 358.333 450.035C335.667 458.583 310.667 461.66 283.333 461.66C275.333 461.66 270 461.66 266.667 461.318C263.333 460.976 258.667 460.976 252.333 460.976V570.69C252.667 573.083 251 575.169 248.667 575.511H184C181.333 575.511 180 574.109 180 571.032V219.256C180 216.863 181 215.495 183.333 215.495C189 215.495 194.333 215.495 202 215.154C210 214.812 218.333 214.812 227.333 214.47C236.333 214.128 246 214.128 256.333 213.786C266.667 213.444 276.667 213.444 286.667 213.444C314 213.444 336.667 216.863 355.333 224.043C372 229.855 387.333 239.428 400 252.078C410.667 263.019 419 276.353 424.333 291.054C429.3 305.414 431.967 320.115 431.967 335.501C432 364.904 425.333 389.178 411.967 408.324ZM648.333 541.321C639 554.997 625.967 565.562 611 571.784C594.667 578.93 574.667 582.656 550.633 582.656C535.333 582.656 520.3 581.323 505.333 578.246C493.667 576.16 482 572.434 471.333 567.305C469 565.972 467.3 563.579 467.633 560.844V501.354C467.633 500.362 468 498.961 469 498.277C469.967 497.593 471 497.935 472 498.619C485 506.482 498.667 511.987 513.333 515.372C525.967 518.79 539.3 520.5 552.667 520.5C565.333 520.5 574.333 518.756 580.333 515.679C585.667 513.286 589.333 507.474 589.333 501.32C589.333 496.499 586.667 492.088 581.333 487.644C576 483.233 565.033 478.105 548.7 471.541C531.7 465.386 516.067 457.181 501.367 446.958C491.033 439.402 482.4 429.522 476 417.897C470.7 406.957 468.033 394.99 468.367 382.99C468.367 368.288 472.367 354.271 479.733 341.62C488.067 327.945 500.367 317.004 514.7 310.166C530.333 301.995 550 298.234 573.667 298.234C587.333 298.234 601.333 299.26 615 301.311C625 302.679 634.667 305.414 643.667 309.175C644.967 309.517 646.333 310.884 647 312.252C647.333 313.619 647.667 314.987 647.667 316.354V372.083C647.667 373.451 647 374.818 646 375.502C643 376.186 641.333 376.186 640 375.502C630 370.032 619.333 366.271 608 363.878C595.667 361.143 583.333 359.433 570.667 359.433C564 359.091 557 360.117 550.633 361.827C546.333 362.852 542.633 365.245 540.3 368.664C538.633 371.4 537.633 374.819 537.633 377.896C537.633 380.973 538.967 384.05 541 386.785C544 390.546 547.967 393.623 552.333 396.016C559.967 400.119 568 403.88 575.967 407.299C594 413.453 611.333 422 627.333 432.257C638.333 439.402 647.333 449.01 653.633 460.634C658.967 471.506 661.633 483.541 661.3 495.815C661.667 511.918 657 527.953 648.333 541.321Z" fill="black"/>
</g>
<defs>
<clipPath id="clip0_514_1197">
<rect width="800" height="800" fill="white"/>
</clipPath>
</defs>
</svg>
