<svg width="800" height="800" viewBox="0 0 800 800" fill="none" xmlns="http://www.w3.org/2000/svg">
<path d="M471.437 399.998C471.437 361.748 439.456 330.734 400 330.734C360.549 330.734 328.562 361.748 328.562 399.998C328.562 438.254 360.549 469.265 400 469.265C439.456 469.265 471.437 438.254 471.437 399.998Z" fill="black"/>
<path fill-rule="evenodd" clip-rule="evenodd" d="M632.011 270.765C647.096 211.327 666.059 101.106 599.211 63.7372C532.675 26.5316 446.091 97.8244 400.371 140.618C354.784 98.2508 265.768 27.2628 198.977 64.75C132.467 102.08 152.977 210.474 168.397 270.285C106.355 287.37 0 324.17 0 399.357C0 474.33 106.244 514.368 167.919 531.437C152.442 591.578 132.959 698.424 199.554 735.672C266.595 773.152 355.333 703.853 401.477 660.592C447.491 703.637 533.243 773.389 599.792 736.037C666.549 698.568 649.163 589.824 633.741 529.666C693.528 512.56 800 473.394 800 399.357C800 324.893 693.075 287.794 632.011 270.765ZM624.432 497.786C614.307 466.709 600.64 433.661 583.923 399.522C599.88 366.189 613.016 333.568 622.859 302.69C667.624 315.274 765.827 344.034 765.827 399.357C765.827 455.2 671.589 484.232 624.432 497.786ZM582.667 707.36C533.013 735.226 459.256 668.522 425.275 636.824C447.819 612.917 470.347 585.125 492.333 554.264C531.011 550.938 567.547 545.498 600.683 538.072C611.536 580.624 632.539 679.368 582.667 707.36ZM216.63 706.962C166.971 679.2 189.669 583.856 201.055 539.554C233.822 546.584 270.096 551.64 308.864 554.688C330.995 584.885 354.176 612.642 377.536 636.952C348.675 664.021 266.52 734.853 216.63 706.962ZM34.1731 399.357C34.1731 343.306 131.789 314.754 177.574 302.202C187.587 333.773 200.719 366.784 216.566 400.165C200.513 434.042 187.194 467.576 177.089 499.52C133.432 487.402 34.1731 455.442 34.1731 399.357ZM216.099 93.4274C265.96 65.4439 343.325 133.595 376.424 164.27C353.184 188.467 330.216 216.016 308.275 246.04C270.651 249.421 234.633 254.85 201.522 262.125C189.1 213.885 166.291 121.381 216.099 93.4274ZM516.781 282.056C542.307 285.178 566.763 289.333 589.725 294.416C582.832 315.84 574.24 338.242 564.12 361.208C549.451 334.221 533.704 307.776 516.781 282.056ZM400.381 187.949C416.144 204.506 431.931 222.994 447.461 243.053C415.96 241.608 384.408 241.602 352.907 243.032C368.451 223.159 384.373 204.698 400.381 187.949ZM236.173 361.184C226.221 338.298 217.706 315.797 210.753 294.066C233.578 289.114 257.92 285.066 283.28 281.994C266.309 307.658 250.589 334.093 236.173 361.184ZM284.008 519.085C257.811 516.25 233.1 512.408 210.282 507.592C217.345 485.48 226.047 462.493 236.212 439.114C250.827 466.488 266.787 493.178 284.008 519.085ZM401.328 613.106C385.131 596.16 368.973 577.416 353.195 557.256C384.875 558.461 416.616 558.464 448.293 557.093C432.715 577.621 416.984 596.392 401.328 613.106ZM564.445 437.925C575.139 461.557 584.152 484.418 591.312 506.157C568.115 511.29 543.072 515.424 516.685 518.493C533.733 492.285 549.731 465.429 564.445 437.925ZM473.261 522.509C424.803 525.866 376.043 525.829 327.568 522.784C300.024 483.773 275.504 442.746 254.339 400.154C275.403 357.65 299.744 316.704 327.157 277.754C375.667 274.2 424.475 274.189 472.984 277.776C500.163 316.722 524.467 357.562 546.019 399.682C524.723 442.165 500.253 483.194 473.261 522.509ZM582.141 92.4423C632.016 120.334 609.816 219.393 598.92 262.469C565.731 255.042 529.688 249.517 491.955 246.082C469.971 215.734 447.195 188.138 424.331 164.253C457.853 132.917 532.749 64.8234 582.141 92.4423Z" fill="black"/>
</svg>
