<svg width="800" height="800" viewBox="0 0 800 800" fill="none" xmlns="http://www.w3.org/2000/svg">
<path fill-rule="evenodd" clip-rule="evenodd" d="M400 161.439C293.32 161.439 226.68 214.439 200 320.479C240 267.479 286.68 247.599 340 260.839C370.44 268.399 392.2 290.359 416.24 314.639C455.48 354.199 500.88 399.999 600 399.999C706.68 399.999 773.32 346.999 800 240.959C760 293.959 713.36 313.839 660 300.599C629.56 293.039 607.8 271.079 583.72 246.799C544.52 207.199 499.16 161.439 400 161.439ZM200 399.999C93.32 399.999 26.68 452.999 0 559.039C40 505.999 86.68 486.159 140 499.399C170.44 506.959 192.2 528.919 216.28 553.199C255.48 592.759 300.88 638.56 400.04 638.56C506.72 638.56 573.36 585.559 600.04 479.519C560.04 532.519 513.36 552.399 460.04 539.159C429.6 531.599 407.84 509.639 383.8 485.359C344.52 445.799 299.12 399.999 200 399.999Z" fill="black"/>
</svg>
