<svg width="45" height="36" viewBox="0 0 45 36" fill="none" xmlns="http://www.w3.org/2000/svg">
<path fill-rule="evenodd" clip-rule="evenodd" d="M10.062 0C7.55097 0 5.69397 2.257 5.77697 4.705C5.85697 7.056 5.75297 10.102 5.00597 12.585C4.25797 15.076 2.99097 16.651 0.922974 16.853V19.147C2.99197 19.349 4.25797 20.924 5.00597 23.415C5.75297 25.898 5.85697 28.944 5.77697 31.295C5.69397 33.743 7.55097 36 10.062 36H35.787C38.298 36 40.155 33.743 40.073 31.295C39.993 28.944 40.096 25.898 40.843 23.415C41.592 20.924 42.855 19.349 44.923 19.147V16.853C42.855 16.651 41.592 15.076 40.843 12.585C40.097 10.102 39.993 7.056 40.073 4.705C40.156 2.257 38.299 0 35.788 0H10.062ZM25.713 17.422V17.451C28.312 17.752 30.056 19.596 30.056 22.05C30.056 23.675 29.451 25.024 28.307 25.951C27.165 26.877 25.502 27.366 23.499 27.366H15.79V8.63204H23.459C25.133 8.63204 26.553 9.07505 27.564 9.91205C28.579 10.752 29.115 11.933 29.115 13.328C29.115 15.301 27.624 17.092 25.713 17.422ZM18.842 16.568H22.122C24.664 16.568 26.064 15.56 26.065 13.729C26.065 12.023 24.886 11.084 22.745 11.084H18.842V16.568ZM22.718 18.864H18.842V24.917H22.89C25.538 24.917 26.938 23.864 26.938 21.871C26.938 19.876 25.518 18.864 22.718 18.864Z" fill="#F2EEF9"/>
</svg>
