<svg width="43" height="43" viewBox="0 0 43 43" fill="none" xmlns="http://www.w3.org/2000/svg">
<path d="M3.99789 0.0528564C2.76519 0.0528564 1.68846 0.814763 1.06528 1.96418L20.2606 24.9986C20.9675 25.8469 22.0282 25.8469 22.7352 24.9986C23.4421 24.1502 41.9305 1.96418 41.9305 1.96418C41.3073 0.814763 40.2306 0.0528564 38.9979 0.0528564H3.99789ZM0.497894 7.85882V37.8529C0.497894 40.1797 2.05889 42.0529 3.99789 42.0529H38.9979C40.9369 42.0529 42.4979 40.1797 42.4979 37.8529V7.85882L25.2098 28.6045C23.1746 31.0468 19.8212 31.0468 17.786 28.6045L9.14194 18.2317L0.497894 7.85882Z" fill="#F2EEF9"/>
</svg>
