<svg width="24" height="36" viewBox="0 0 24 36" fill="none" xmlns="http://www.w3.org/2000/svg">
<path d="M11.4544 0V10.9565H5.97612C2.95917 10.9565 0.497864 8.49522 0.497864 5.47826C0.497864 2.4613 2.95917 0 5.97612 0H11.4544Z" fill="#F2EEF9"/>
<path d="M11.4544 12.5217V23.4783H5.97612C2.95917 23.4783 0.497864 21.0169 0.497864 18C0.497864 14.983 2.95917 12.5217 5.97612 12.5217H11.4544Z" fill="#F2EEF9"/>
<path d="M11.4544 25.0435V30.5217C11.4544 33.5387 8.99308 36 5.97612 36C2.95917 36 0.497864 33.5387 0.497864 30.5217C0.497864 27.5048 2.95917 25.0435 5.97612 25.0435H11.4544Z" fill="#F2EEF9"/>
<path d="M23.9761 5.47826C23.9761 8.49522 21.5148 10.9565 18.4979 10.9565H13.0196V0H18.4979C21.5148 0 23.9761 2.4613 23.9761 5.47826Z" fill="#F2EEF9"/>
<path d="M18.4979 23.4783C21.5234 23.4783 23.9761 21.0255 23.9761 18C23.9761 14.9744 21.5234 12.5217 18.4979 12.5217C15.4723 12.5217 13.0196 14.9744 13.0196 18C13.0196 21.0255 15.4723 23.4783 18.4979 23.4783Z" fill="#F2EEF9"/>
</svg>
