<svg width="33" height="36" viewBox="0 0 33 36" fill="none" xmlns="http://www.w3.org/2000/svg">
<path d="M32.7881 0.254348C32.6394 0.092348 32.4305 0 32.2105 0H1.6324C1.41249 0 1.20353 0.092348 1.05483 0.254348C0.906139 0.416349 0.833356 0.633914 0.852921 0.852262L3.60771 31.7082C3.63666 32.0307 3.86127 32.3022 4.17275 32.3914L16.7031 35.9703C16.7728 35.9899 16.8448 36.0001 16.9176 36.0001C16.9903 36.0001 17.0623 35.9899 17.132 35.9703L29.6725 32.3914C29.984 32.3022 30.2086 32.0307 30.2376 31.7082L32.9908 0.852262C33.0096 0.633131 32.936 0.416349 32.7881 0.254348ZM26.1931 10.8931H11.4714L11.8212 14.8766H25.8385L24.7875 26.6471L16.9168 29.027L16.8393 29.0035L9.05859 26.6463L8.63441 21.8489H12.4449L12.6124 23.7115L16.9606 24.6225L21.2313 23.71L21.686 18.6739H8.34798L7.31415 7.08575H26.5343L26.1931 10.8931Z" fill="#F2EEF9"/>
</svg>
