<svg width="37" height="36" viewBox="0 0 37 36" fill="none" xmlns="http://www.w3.org/2000/svg">
<path fill-rule="evenodd" clip-rule="evenodd" d="M0.517883 36V0H36.5179V36H0.517883ZM24.0559 26.947C24.7479 28.071 25.4999 29.148 27.0929 29.148C28.4309 29.148 29.1329 28.483 29.1329 27.563C29.1329 26.462 28.4069 26.071 26.9349 25.43L26.1279 25.086C23.7989 24.098 22.2499 22.86 22.2499 20.245C22.2499 17.835 24.0949 16.001 26.9779 16.001C29.0309 16.001 30.5059 16.712 31.5699 18.574L29.0559 20.181C28.5029 19.193 27.9049 18.804 26.9779 18.804C26.0319 18.804 25.4329 19.401 25.4329 20.181C25.4329 21.145 26.0329 21.535 27.4179 22.132L28.2249 22.476C30.9699 23.645 32.5179 24.839 32.5179 27.523C32.5179 30.415 30.2339 32 27.1679 32C24.1689 32 22.4659 30.495 21.5179 28.632L24.0559 26.947ZM14.8509 28.632C13.7449 28.632 12.9759 27.935 12.4699 27.029L9.85089 28.632C10.6089 30.254 12.4689 32 15.0459 32C17.8979 32 19.8509 30.468 19.8509 27.101V16H16.5179V26.589C16.5179 28.214 15.9089 28.632 14.8509 28.632Z" fill="#F2EEF9"/>
</svg>
