<svg width="43" height="43" viewBox="0 0 43 43" fill="none" xmlns="http://www.w3.org/2000/svg">
<path d="M37.5179 0.95459H5.51788C2.75788 0.95459 0.517883 3.19459 0.517883 5.95459V37.9546C0.517883 40.7146 2.75788 42.9546 5.51788 42.9546H37.5179C40.2779 42.9546 42.5179 40.7146 42.5179 37.9546V5.95459C42.5179 3.19459 40.2779 0.95459 37.5179 0.95459ZM13.5179 16.9546V35.9546H7.51788V16.9546H13.5179ZM7.51788 11.4246C7.51788 10.0246 8.71788 8.95459 10.5179 8.95459C12.3179 8.95459 13.4479 10.0246 13.5179 11.4246C13.5179 12.8246 12.3979 13.9546 10.5179 13.9546C8.71788 13.9546 7.51788 12.8246 7.51788 11.4246ZM35.5179 35.9546H29.5179C29.5179 35.9546 29.5179 26.6946 29.5179 25.9546C29.5179 23.9546 28.5179 21.9546 26.0179 21.9146H25.9379C23.5179 21.9146 22.5179 23.9746 22.5179 25.9546C22.5179 26.8646 22.5179 35.9546 22.5179 35.9546H16.5179V16.9546H22.5179V19.5146C22.5179 19.5146 24.4479 16.9546 28.3279 16.9546C32.2979 16.9546 35.5179 19.6846 35.5179 25.2146V35.9546Z" fill="#F2EEF9"/>
</svg>
