<svg width="37" height="36" viewBox="0 0 37 36" fill="none" xmlns="http://www.w3.org/2000/svg">
<path d="M12.29 10.2648C11.3789 10.2648 10.7605 10.3535 10.439 10.4442V16.3002C10.8224 16.3868 11.2903 16.4157 11.9375 16.4157C14.3224 16.4157 15.7941 15.2098 15.7941 13.1774C15.7921 11.3552 14.5265 10.2648 12.29 10.2648Z" fill="#F2EEF9"/>
<path d="M33.8818 0H2.28255C1.06434 0 0.0769958 0.985286 0.0769958 2.19937V33.7965C0.0769958 35.0127 1.06434 36 2.28255 36H33.8818C35.0979 36 36.0853 35.0127 36.0853 33.7965V2.20143C36.0853 0.985286 35.0979 0 33.8818 0ZM18.4099 17.7722C16.8825 19.2151 14.6131 19.8624 11.9684 19.8624C11.3769 19.8624 10.8492 19.8335 10.4369 19.7737V26.8686H5.99077V7.29482C7.37388 7.0619 9.31559 6.88463 12.055 6.88463C14.8192 6.88463 16.7939 7.41232 18.1151 8.47387C19.3869 9.47564 20.2382 11.1247 20.2382 13.0664C20.2382 15.0081 19.5889 16.6509 18.4099 17.7722ZM25.1111 27.1613C23.223 27.1613 21.5472 26.7532 20.4567 26.1616L21.2503 22.9543C22.0748 23.451 23.7836 24.0406 25.1111 24.0406C26.4612 24.0406 27.0219 23.5706 27.0219 22.8327C27.0219 22.0988 26.5808 21.7464 24.905 21.1857C21.9326 20.186 20.7824 18.5658 20.8113 16.8591C20.8113 14.1836 23.1075 12.147 26.6694 12.147C28.3473 12.147 29.8479 12.5325 30.7301 12.9716L29.9365 16.0635C29.2893 15.7089 28.0546 15.241 26.8158 15.241C25.7295 15.241 25.1131 15.6821 25.1131 16.418C25.1131 17.0941 25.6676 17.4466 27.4341 18.067C30.1715 19.0069 31.3217 20.3921 31.3485 22.507C31.3485 25.1887 29.2254 27.1613 25.1111 27.1613Z" fill="#F2EEF9"/>
</svg>
