<svg width="41" height="36" viewBox="0 0 41 36" fill="none" xmlns="http://www.w3.org/2000/svg">
<path d="M18.2905 26.3687C19.0317 26.4024 19.789 26.4266 20.5558 26.4266C21.3307 26.4266 22.0961 26.4105 22.8467 26.3687C22.0961 27.339 21.3549 28.1974 20.5706 29.0154L20.5814 29.0046C19.8011 28.1961 19.0519 27.3363 18.3457 26.4415L18.2905 26.3687ZM10.6118 25.2906C12.0713 25.6612 13.8514 25.9765 15.668 26.1706L15.8446 26.1854C16.9563 27.7123 18.0802 29.0558 19.2864 30.3199L19.2715 30.3037C17.5048 32.2753 15.1209 33.6606 12.4243 34.1579L12.3502 34.1687C12.3448 34.1687 12.3394 34.1687 12.334 34.1687C11.9998 34.1687 11.6845 34.0865 11.4082 33.9409L11.419 33.9463C10.2978 33.3062 9.81131 30.8576 10.19 27.7109C10.2803 26.936 10.4285 26.1207 10.6104 25.2893L10.6118 25.2906ZM30.5335 25.2731C30.6925 25.9119 30.8421 26.7258 30.9486 27.5532L30.9607 27.6691C31.3475 30.8145 30.8704 33.2604 29.7586 33.914C29.5107 34.0514 29.2142 34.1323 28.8989 34.1323C28.8679 34.1323 28.8369 34.1309 28.8059 34.1296H28.8099C26.0433 33.6242 23.6607 32.2483 21.898 30.301L21.8886 30.2902C23.0731 29.0464 24.189 27.7055 25.2118 26.2946L25.29 26.1814C27.279 25.9738 29.0619 25.6531 30.799 25.2151L30.5335 25.2717V25.2731ZM12.1871 20.2438C12.5241 20.9041 12.8771 21.5618 13.2652 22.2221C13.6524 22.8788 14.0482 23.5203 14.4525 24.1465C13.2828 23.9753 12.1535 23.7597 11.074 23.4969C11.3772 22.4364 11.7573 21.3381 12.1858 20.2411L12.1871 20.2438ZM28.9353 20.2101C29.3813 21.3165 29.76 22.4202 30.074 23.4902C28.9959 23.7543 27.8572 23.978 26.6794 24.1465C27.0836 23.5145 27.4879 22.8636 27.8666 22.1965C28.2453 21.5402 28.5997 20.8691 28.9379 20.2088L28.9353 20.2101ZM9.26957 13.0017C9.85713 14.9935 10.4878 16.6592 11.2223 18.2655L11.1212 18.0202C10.4932 19.3746 9.87195 21.0308 9.36256 22.7355L9.29248 23.0118C8.34107 22.7194 7.57562 22.4323 6.8304 22.1102L6.98537 22.1695C4.06914 20.9284 2.18249 19.2964 2.18249 18.0027C2.18249 16.709 4.06914 15.069 6.98537 13.8332C7.69287 13.53 8.46909 13.2564 9.26957 13.0017ZM31.8272 12.995C32.6425 13.247 33.4174 13.5287 34.1424 13.8332C37.0586 15.0798 38.9453 16.709 38.9453 18.0027C38.9372 19.2964 37.0506 20.9324 34.1343 22.1709C33.4268 22.4741 32.652 22.7463 31.8528 23.001C31.2599 21.0025 30.6292 19.3382 29.8974 17.7292L29.9999 17.9825C30.6252 16.6295 31.2478 14.9733 31.7558 13.2686L31.8272 12.991V12.995ZM26.6686 11.859C27.8396 12.0328 28.9676 12.2457 30.047 12.5112C29.7438 13.5758 29.3651 14.6701 28.9353 15.767C28.5983 15.1108 28.2453 14.4491 27.8572 13.7901C27.4785 13.1298 27.0742 12.487 26.6699 11.8603L26.6686 11.859ZM14.443 11.859C14.0388 12.4937 13.6345 13.1432 13.2572 13.813C12.8785 14.4693 12.5241 15.1296 12.1871 15.79C11.7411 14.6849 11.3624 13.5839 11.0484 12.5112C12.1265 12.2592 13.2625 12.0342 14.4417 11.8617L14.443 11.859ZM20.5639 11.4304C21.8104 11.4304 23.0516 11.487 24.2725 11.5868C24.9562 12.5669 25.6201 13.6109 26.2643 14.7186C26.8905 15.7967 27.4619 16.8892 27.9784 17.996C27.4596 19.0997 26.8909 20.202 26.2724 21.2801C25.6323 22.3919 24.9706 23.4498 24.2846 24.4295C23.0583 24.5359 21.8158 24.5939 20.5625 24.5939C19.316 24.5939 18.0749 24.5346 16.8539 24.4376C16.1707 23.4579 15.5036 22.4094 14.8622 21.3057C14.236 20.2276 13.6646 19.1352 13.148 18.0283C13.6587 16.9219 14.2355 15.8169 14.8541 14.7375C15.4942 13.6257 16.1559 12.5719 16.8418 11.5921C18.0681 11.4843 19.3106 11.4277 20.5639 11.4277V11.4304ZM20.5383 7.00892C21.3199 7.81749 22.0692 8.67592 22.774 9.57073L22.8279 9.64215C22.0867 9.60846 21.3293 9.58555 20.5625 9.58555C19.7877 9.58555 19.0222 9.60172 18.2716 9.64215C19.0209 8.67187 19.7621 7.81345 20.5477 6.99545L20.5369 7.00623L20.5383 7.00892ZM12.3165 1.87183C15.0832 2.37853 17.4644 3.75444 19.2284 5.70039L19.2378 5.71117C18.0533 6.95637 16.9375 8.29724 15.9146 9.71088L15.8365 9.82408C13.8488 10.0303 12.0659 10.3483 10.3301 10.7863L10.5943 10.7297C10.4056 9.90494 10.2655 9.1058 10.1671 8.33901C9.78032 5.19369 10.2574 2.74778 11.3691 2.09688C11.6468 1.96616 11.9715 1.88531 12.3138 1.87453H12.3179L12.3165 1.87183ZM28.7708 1.83814V1.84892C28.7884 1.84892 28.8086 1.84757 28.8301 1.84757C29.1522 1.84757 29.4554 1.92708 29.7223 2.06723L29.7115 2.06184C30.8327 2.70465 31.3192 5.15192 30.9405 8.29993C30.8502 9.07481 30.702 9.89146 30.52 10.7243C29.0579 10.3496 27.2777 10.033 25.4611 9.84025L25.2886 9.82543C24.1755 8.29724 23.0516 6.95367 21.8455 5.68826L21.8616 5.70443C23.6284 3.73692 26.0082 2.35158 28.6994 1.85162L28.7749 1.83949L28.7708 1.83814ZM28.7789 0.00269503C25.4881 0.502659 22.6392 2.10092 20.5585 4.40669L20.5477 4.41881C18.4522 2.1144 15.6033 0.526916 12.3933 0.0458186L12.3179 0.0363854C12.3003 0.0363854 12.2788 0.0363854 12.2572 0.0363854C11.5955 0.0363854 10.9743 0.210227 10.4366 0.514787L10.4555 0.505354C8.14027 1.84084 7.62144 6.00226 8.81677 11.2242C3.69046 12.8077 0.356476 15.3385 0.356476 18.0054C0.356476 20.6831 3.70798 23.2207 8.84912 24.792C7.66322 30.0342 8.19283 34.2024 10.5134 35.5365C11.0228 35.8289 11.6346 36.0001 12.2855 36.0001C12.3152 36.0001 12.3448 36.0001 12.3731 35.9987H12.3691C15.6599 35.4988 18.5088 33.8991 20.5895 31.592L20.6003 31.5799C22.6958 33.8857 25.5447 35.4732 28.7547 35.9542L28.8301 35.9637C28.8504 35.9637 28.876 35.9637 28.9002 35.9637C29.5578 35.9637 30.1764 35.7912 30.7114 35.4907L30.6925 35.5001C33.0064 34.166 33.5266 30.0045 32.3312 24.7812C37.4387 23.2112 40.7727 20.675 40.7727 18.0041C40.7727 15.3264 37.4212 12.7888 32.28 11.2135C33.4659 5.97665 32.9363 1.80445 30.6157 0.468969C30.1009 0.173842 29.4837 0 28.8261 0C28.8086 0 28.7911 0 28.7735 0H28.7762L28.7789 0.00269503ZM24.3197 18.0054C24.3197 20.0848 22.6338 21.7706 20.5545 21.7706C18.4751 21.7706 16.7892 20.0848 16.7892 18.0054C16.7892 15.9261 18.4751 14.2402 20.5545 14.2402C21.5948 14.2402 22.5354 14.662 23.2173 15.3425C23.8992 16.0244 24.3197 16.9651 24.3197 18.0054Z" fill="#F2EEF9"/>
</svg>
