<svg width="57" height="36" viewBox="0 0 57 36" fill="none" xmlns="http://www.w3.org/2000/svg">
<path d="M28.5 2.99487C21.8295 2.99487 17.6604 6.32911 15.9927 12.9976C18.4942 9.66335 21.4126 8.41366 24.7478 9.24644C26.651 9.72172 28.0112 11.1027 29.5173 12.6307C31.9687 15.1186 34.8068 17.9995 41.0073 17.9995C47.6779 17.9995 51.847 14.6652 53.5146 7.99571C51.0132 11.33 48.0948 12.5807 44.7595 11.7479C42.8574 11.2726 41.4972 9.89161 39.9911 8.36363C37.5386 5.87468 34.6995 2.99487 28.5 2.99487ZM15.9927 17.9995C9.32216 17.9995 5.15305 21.3337 3.48541 28.0032C5.98687 24.669 8.90524 23.4183 12.2405 24.2521C14.1427 24.7284 15.5029 26.1084 17.0089 27.6353C19.4614 30.1243 22.3006 33.0051 28.5 33.0051C35.1706 33.0051 39.3397 29.6709 41.0073 23.0014C38.5059 26.3356 35.5875 27.5863 32.2522 26.7525C30.349 26.2772 28.9889 24.8962 27.4828 23.3693C25.0313 20.8803 22.1932 17.9995 15.9927 17.9995Z" fill="#F2EEF9"/>
</svg>
